<svg width="327" height="145" viewBox="0 0 327 145" fill="none" xmlns="http://www.w3.org/2000/svg">
<g filter="url(#filter0_d_48_1462)">
<circle cx="164" cy="64.7012" r="40" fill="white"/>
</g>
<path d="M156 69.501C156 69.901 156.2 70.301 156.6 70.501L161.6 73.501C162.2 73.901 162.8 73.5011 162.8 72.9011V67.301C162.8 67.101 162.6 66.701 162.4 66.701L157.2 63.301C156.8 63.101 156 63.501 156 64.101V69.501Z" fill="#091E42"/>
<path d="M163.6 67.1009V72.7009C163.6 73.3009 164.2 73.7009 164.8 73.3009L169.8 70.3009C170.2 70.1009 170.4 69.7009 170.4 69.3009V64.1009C170.4 63.5009 169.8 63.1009 169.2 63.5009L164 66.3009C163.8 66.5009 163.6 66.7009 163.6 67.1009Z" fill="#091E42"/>
<path d="M169.2 62.501L163.6 65.701C163.4 65.901 163 65.901 162.8 65.701L157.2 62.501C156.6 62.101 156.6 61.501 157.2 61.101L162.8 57.901C163 57.701 163.4 57.701 163.6 57.901L169.2 61.101C169.8 61.301 169.8 62.101 169.2 62.501Z" fill="#36B37E"/>
<path d="M144 80.7012C144 81.1012 144.2 81.5012 144.6 81.7012L149.6 84.7012C150.2 85.1012 150.8 84.7012 150.8 84.1012V78.5012C150.8 78.3012 150.6 77.9012 150.4 77.9012L145.2 74.9012C144.6 74.5012 144 74.9012 144 75.5012V80.7012V80.7012Z" fill="#091E42"/>
<path d="M151.6 78.1014V83.7014C151.6 84.3014 152.2 84.7014 152.8 84.3014L157.8 81.3014C158.2 81.1014 158.4 80.7014 158.4 80.3014V74.7014C158.4 74.1014 157.8 73.7014 157.2 74.1014L152 77.5014C151.8 77.7014 151.6 77.9014 151.6 78.1014Z" fill="#091E42"/>
<path d="M157.2 73.501L151.6 76.701C151.4 76.901 151 76.901 150.8 76.701L145.2 73.501C144.6 73.101 144.6 72.501 145.2 72.101L150.8 68.901C151 68.701 151.4 68.701 151.6 68.901L157.2 72.101C157.6 72.501 157.6 73.301 157.2 73.501Z" fill="#36B37E"/>
<path d="M168.2 80.7012C168.2 81.1012 168.4 81.5012 168.8 81.7012L173.8 84.7012C174.4 85.1012 175 84.7012 175 84.1012V78.5012C175 78.3012 174.8 77.9012 174.6 77.9012L169.4 74.9012C168.8 74.5012 168.2 74.9012 168.2 75.5012V80.7012Z" fill="#091E42"/>
<path d="M175.6 78.1014V83.7014C175.6 84.3014 176.2 84.7014 176.8 84.3014L181.8 81.3014C182.2 81.1014 182.4 80.7014 182.4 80.3014V74.7014C182.4 74.1014 181.8 73.7014 181.2 74.1014L176 77.5014C175.8 77.7014 175.6 77.9014 175.6 78.1014Z" fill="#091E42"/>
<path d="M181.2 73.501L175.6 76.701C175.4 76.901 175 76.901 174.8 76.701L169.2 73.501C168.6 73.101 168.6 72.501 169.2 72.101L174.8 68.901C175 68.701 175.4 68.701 175.6 68.901L181.2 72.101C181.8 72.501 181.8 73.301 181.2 73.501Z" fill="#36B37E"/>
<path d="M144 58.5016C144 58.9016 144.2 59.3016 144.6 59.5016L149.6 62.5016C150 62.7016 150.8 62.3016 150.8 61.7016V55.9016C150.8 55.7016 150.6 55.3016 150.4 55.3016L145.2 52.3016C144.6 52.1016 144 52.3016 144 53.1016V58.5016Z" fill="#091E42"/>
<path d="M151.6 55.9009V61.5009C151.6 62.1009 152.2 62.5009 152.8 62.1009L157.8 59.1009C158.2 58.9009 158.4 58.5009 158.4 58.1009V53.1009C158.4 52.5009 157.8 52.1009 157.2 52.5009L152 55.3009C151.8 55.5009 151.6 55.7009 151.6 55.9009Z" fill="#091E42"/>
<path d="M157.2 51.3012L151.6 54.5012C151.4 54.7012 151 54.7012 150.8 54.5012L145.2 51.3012C144.6 50.9012 144.6 50.3012 145.2 49.9012L150.8 46.7012C151 46.7012 151.4 46.7012 151.6 46.9012L157.2 50.1012C157.6 50.3012 157.6 51.1012 157.2 51.3012Z" fill="#36B37E"/>
<path d="M168.2 58.5016C168.2 58.9016 168.4 59.3016 168.8 59.5016L173.8 62.5016C174.4 62.9016 175 62.5016 175 61.9016V55.9016C175 55.7016 174.8 55.3016 174.6 55.3016L169.4 52.3016C168.8 51.9016 168.2 52.3016 168.2 52.9016V58.5016Z" fill="#091E42"/>
<path d="M175.6 55.9009V61.5009C175.6 62.1009 176.2 62.5009 176.8 62.1009L181.8 59.1009C182.2 58.9009 182.4 58.5009 182.4 58.1009V53.1009C182.4 52.5009 181.8 52.1009 181.2 52.5009L176 55.3009C175.8 55.5009 175.6 55.7009 175.6 55.9009Z" fill="#091E42"/>
<path d="M181.2 51.301L175.6 54.701C175.4 54.701 175.2 54.701 174.8 54.701L169.2 51.501C168.6 51.101 168.6 50.501 169.2 50.101L174.8 46.901C175 46.701 175.4 46.701 175.6 46.901L181.2 50.101C181.8 50.301 181.8 51.101 181.2 51.301Z" fill="#36B37E"/>
<defs>
<filter id="filter0_d_48_1462" x="100" y="16.7012" width="128" height="128" filterUnits="userSpaceOnUse" color-interpolation-filters="sRGB">
<feFlood flood-opacity="0" result="BackgroundImageFix"/>
<feColorMatrix in="SourceAlpha" type="matrix" values="0 0 0 0 0 0 0 0 0 0 0 0 0 0 0 0 0 0 127 0" result="hardAlpha"/>
<feOffset dy="16"/>
<feGaussianBlur stdDeviation="12"/>
<feColorMatrix type="matrix" values="0 0 0 0 0.145573 0 0 0 0 0.185183 0 0 0 0 0.5375 0 0 0 0.08 0"/>
<feBlend mode="normal" in2="BackgroundImageFix" result="effect1_dropShadow_48_1462"/>
<feBlend mode="normal" in="SourceGraphic" in2="effect1_dropShadow_48_1462" result="shape"/>
</filter>
</defs>
</svg>
